<?xml version="1.0" standalone="no"?>
<!DOCTYPE svg PUBLIC "-//W3C//DTD SVG 20010904//EN"
 "http://www.w3.org/TR/2001/REC-SVG-20010904/DTD/svg10.dtd">
<svg version="1.0" xmlns="http://www.w3.org/2000/svg"
 width="867.000000pt" height="867.000000pt" viewBox="0 0 867.000000 867.000000"
 preserveAspectRatio="xMidYMid meet">

<g transform="translate(0.000000,867.000000) scale(0.100000,-0.100000)"
fill="#385898" stroke="none">
<path d="M30 8655 c0 -8 -7 -15 -15 -15 -13 0 -15 -487 -15 -4320 l0 -4320
4335 0 4335 0 0 4335 0 4335 -4320 0 c-3833 0 -4320 -2 -4320 -15z m1178
-3140 c73 -17 153 -54 197 -89 l29 -23 -17 -40 c-10 -21 -26 -70 -36 -108 -22
-90 -40 -95 -74 -22 -34 74 -88 131 -155 164 -49 24 -69 28 -142 27 -101 0
-174 -28 -237 -91 -67 -67 -88 -123 -88 -233 1 -79 5 -102 23 -138 50 -95 168
-174 388 -260 196 -75 322 -168 372 -272 111 -232 -8 -573 -243 -697 -120 -63
-192 -78 -370 -78 -182 1 -234 13 -358 87 -59 34 -68 43 -62 61 5 19 30 139
41 205 7 37 30 25 62 -31 106 -187 335 -272 535 -197 135 51 227 195 227 355
0 174 -98 269 -400 390 -144 57 -231 108 -299 176 -67 68 -96 118 -115 199
-55 233 47 465 248 563 130 64 330 86 474 52z m1454 -280 c267 -646 517 -1232
625 -1465 l39 -85 -139 1 -140 2 -38 107 c-21 60 -81 215 -134 346 l-97 237
-173 7 c-95 4 -245 4 -333 0 -136 -6 -161 -10 -165 -24 -3 -9 -37 -99 -77
-201 -40 -102 -94 -250 -121 -329 l-48 -145 -98 -1 -99 -1 99 216 c113 246
537 1200 648 1458 72 169 75 173 102 170 28 -3 34 -15 149 -293z m3650 0 c267
-646 517 -1232 625 -1465 l39 -85 -139 1 -140 2 -38 107 c-21 60 -81 215 -134
346 l-97 237 -173 7 c-95 4 -245 4 -333 0 -136 -6 -161 -10 -165 -24 -3 -9
-37 -99 -77 -201 -40 -102 -94 -250 -121 -329 l-48 -145 -98 -1 -99 -1 99 216
c113 246 537 1200 648 1458 72 169 75 173 102 170 28 -3 34 -15 149 -293z
m-1602 226 c47 -12 127 -42 179 -67 76 -37 109 -60 170 -123 143 -143 207
-318 218 -591 13 -315 -66 -546 -247 -730 -121 -122 -250 -192 -449 -243 -82
-21 -107 -22 -529 -22 -334 0 -441 3 -438 12 3 6 10 208 17 449 10 346 10 529
0 877 -7 241 -14 444 -17 451 -3 9 116 11 503 10 488 -1 511 -2 593 -23z
m3526 -54 l0 -79 -35 6 c-44 6 -319 23 -532 31 l-157 7 -7 -159 c-7 -149 0
-511 10 -522 5 -5 554 18 621 26 l40 5 0 -82 0 -83 -74 7 c-40 3 -191 9 -334
13 l-261 6 6 -429 c4 -236 9 -438 12 -449 6 -20 2 -20 -130 -20 -101 0 -134 3
-131 12 3 6 10 208 17 449 10 346 10 529 0 877 -7 241 -14 444 -17 451 -3 8
118 11 484 12 l488 0 0 -79z"/>
<path d="M2312 4839 c-74 -171 -136 -317 -138 -324 -7 -17 318 -29 463 -18
l101 8 -140 323 c-78 177 -144 322 -147 322 -4 0 -66 -140 -139 -311z"/>
<path d="M5962 4839 c-74 -171 -136 -317 -138 -324 -7 -17 318 -29 463 -18
l101 8 -140 323 c-78 177 -144 322 -147 322 -4 0 -66 -140 -139 -311z"/>
<path d="M4040 5369 c-58 -5 -119 -11 -137 -14 l-31 -6 -7 -122 c-4 -67 -5
-416 -3 -775 3 -561 5 -654 18 -662 25 -16 140 -24 315 -24 302 1 452 51 600
199 66 65 89 97 127 175 26 52 54 122 62 156 40 157 45 412 11 582 -24 120
-92 252 -168 326 -34 34 -85 73 -113 88 -138 74 -371 101 -674 77z"/>
</g>
</svg>
